<svg id="SvgjsSvg1001" width="256" height="256" xmlns="http://www.w3.org/2000/svg" version="1.1" xmlns:xlink="http://www.w3.org/1999/xlink" xmlns:svgjs="http://svgjs.com/svgjs"><defs id="SvgjsDefs1002"></defs><g id="SvgjsG1008"><svg xmlns="http://www.w3.org/2000/svg" viewBox="0 0 32 32" width="256" height="256"><path d="M15.502 0a3 3 0 0 0-3 3 3 3 0 0 0 3 3 3 3 0 0 0 3-3 3 3 0 0 0-3-3zM11.5 6.969a1.5 1.5 0 0 0-1.5 1.5v8.025a1.5 1.5 0 0 0 3 0V8.47a1.5 1.5 0 0 0-1.5-1.5zm4.127.004c-.149 0-.298.044-.498.136C14.332 7.373 14 8.115 14 9v16.352l-1.219 4.855c-.162.813.24 1.602 1.053 1.764.1.02.135.029.232.029.701 0 1.295-.492 1.438-1.205l1.234-5c.02-.097.02-.44.047-.535l.215-.737.832 1.97.83 4.33c.154.7.713 1.177 1.402 1.177a1.489 1.489 0 0 0 1.418-1.822l-1.007-4.543a1.525 1.525 0 0 0-.155-.4l-2.576-5.137c.002-.033.003-.004.004-.037L18 14.045l2.008 3.297c.29.424.637.652 1.115.652.292 0 .524-.086.783-.264.684-.467.796-1.4.328-2.084L17.471 8.69a1.993 1.993 0 0 0-1.354-1.584c-.193-.087-.341-.132-.49-.132z" fill="#000000" class="color000 svgShape"></path></svg></g></svg>