<svg xmlns="http://www.w3.org/2000/svg" version="1.1" xmlns:xlink="http://www.w3.org/1999/xlink" xmlns:svgjs="http://svgjs.com/svgjs" width="512" height="512" x="0" y="0" viewBox="0 0 64 64" style="enable-background:new 0 0 512 512" xml:space="preserve" class=""><g><path d="M45.56 3.92H7.62c-1.59 0-2.88 1.29-2.88 2.89v50.38a2.89 2.89 0 0 0 2.88 2.89h30.62c-.004-1.273.003-5.928 0-7.29 0-.16.01-.32.04-.47H19.54c-1.309-.028-1.319-1.972 0-2h20.09c.43-.27.94-.42 1.49-.42h7.32V6.81c0-1.6-1.29-2.89-2.88-2.89zM41.7 17.07c-.023 1.308-1.977 1.322-2 0l-.01-4.11c-.322.468-.667 1.369-1.37 1.31-.35 0-.67-.18-.85-.48l-.51-.82v4.11c0 .55-.45 1-1 1-.56 0-1-.45-1-1V9.45c0-.45.29-.84.72-.96s.89.05 1.13.43l1.51 2.45 1.51-2.44c.493-.848 1.874-.458 1.85.52l.02 7.62zm-9.11.95a.991.991 0 0 1-1.27-.61l-.61-1.75H28.5l-.61 1.75c-.448 1.235-2.304.581-1.89-.66l2.66-7.63c.277-.88 1.617-.874 1.89 0l2.66 7.63c.18.52-.1 1.09-.62 1.27zm-16.3-5.75c1.313.018 1.315 1.975 0 2h-2.8v1.81h2.8c.55 0 1 .44 1 1 0 .55-.45 1-1 1h-3.8c-.56 0-1-.45-1-1V9.45c0-.55.44-1 1-1h3.8c1.315.026 1.314 1.98 0 2h-2.8v1.82h2.8zm-.47 33.61h-3.43c-1.313-.025-1.314-1.975 0-2h3.43c1.315.02 1.316 1.98 0 2zm1 5.44c0 .55-.44 1-1 1h-3.43c-.55 0-1-.45-1-1s.45-1 1-1h3.43c.56 0 1 .45 1 1zm-1-11.88h-3.43c-1.313-.025-1.314-1.975 0-2h3.43c1.315.02 1.316 1.98 0 2zm0-6.44h-3.43c-1.313-.025-1.314-1.975 0-2h3.43c1.315.02 1.316 1.98 0 2zm0-6.44h-3.43c-1.313-.025-1.314-1.975 0-2h3.43c1.315.02 1.316 1.98 0 2zm2.49-9.97 1.85-3.32-1.85-3.33c-.627-1.16 1.091-2.112 1.74-.97l1.25 2.24 1.24-2.24c.66-1.138 2.367-.19 1.75.97l-1.85 3.33 1.85 3.32c.629 1.137-1.113 2.124-1.75.97l-1.24-2.23-1.24 2.23c-.652 1.15-2.382.17-1.75-.97zm22.48 29.29H19.54c-.55 0-1-.45-1-1s.45-1 1-1h21.25c1.31.018 1.32 1.98 0 2zm0-6.44H19.54c-.55 0-1-.45-1-1s.45-1 1-1h21.25c1.31.018 1.32 1.98 0 2zm0-6.44H19.54c-.55 0-1-.45-1-1s.45-1 1-1h21.25c1.31.018 1.32 1.98 0 2zm0-6.44H19.54c-.55 0-1-.45-1-1s.45-1 1-1h21.25c1.31.018 1.32 1.98 0 2z" fill="#D7D7D7" data-original="#000000" opacity="1" class=""></path><path d="M29.19 13.66h.82l-.41-1.17zM41.12 51.9c-.466.013-.886.408-.88.89v6.71l7.62-7.6c-1.61-.003-5.106.002-6.74 0zM52.55 45.82l2.42 5.49c.317.778 1.517.771 1.83 0l2.42-5.49h-6.67zM59.56 13.02V9.03c0-2.03-1.65-3.68-3.68-3.68-2.02 0-3.67 1.65-3.67 3.68v3.99c1.211.004 7.35 0 7.35 0zM59.64 15.02h-7.43v28.8h7.35v-26.8a1.111 1.111 0 0 1 1.18 1.11v11.6c.023 1.31 1.976 1.316 2 0-.003-1.191.002-10.184 0-11.6 0-1.71-1.39-3.11-3.1-3.11z" fill="#D7D7D7" data-original="#000000" opacity="1" class=""></path></g></svg>